<mxfile host="app.diagrams.net" modified="2024-01-12T20:07:55.126Z" agent="Mozilla/5.0 (Windows NT 10.0; Win64; x64) AppleWebKit/537.36 (KHTML, like Gecko) Chrome/120.0.0.0 Safari/537.36" version="22.1.18" etag="uyVraJ1YeRpxzkVH9Q-_" type="github">
  <diagram name="Страница — 1" id="euWZF1uq0GRX-nTF4nlA">
    <mxGraphModel>
      <root>
        <mxCell id="0" />
        <mxCell id="1" parent="0" />
      </root>
    </mxGraphModel>
  </diagram>
</mxfile>
